<?xml version="1.0" encoding="utf-8"?>
<!-- Generator: Adobe Illustrator 24.1.0, SVG Export Plug-In . SVG Version: 6.00 Build 0)  -->
<svg version="1.1" id="Layer_1" xmlns="http://www.w3.org/2000/svg" xmlns:xlink="http://www.w3.org/1999/xlink" x="0px" y="0px"
	 viewBox="0 0 1366 768" style="enable-background:new 0 0 1366 768;" xml:space="preserve">
<style type="text/css">
	.st0{fill:#E89B36;}
	.st1{fill:#E58138;}
	.st2{fill:#FFAC5A;}
	.st3{fill:#FF8657;}
</style>
<g>
	<circle class="st0" cx="29.8" cy="663.8" r="27.2"/>
</g>
<g>
	
		<ellipse transform="matrix(3.327794e-02 -0.9994 0.9994 3.327794e-02 -577.6841 730.361)" class="st0" cx="88.7" cy="663.8" rx="27.2" ry="27.2"/>
</g>
<g>
	
		<ellipse transform="matrix(3.327949e-02 -0.9994 0.9994 3.327949e-02 -518.6554 791.5378)" class="st0" cx="149.8" cy="663.9" rx="27.2" ry="27.1"/>
</g>
<g>
	<circle class="st0" cx="208.9" cy="663.8" r="27.2"/>
</g>
<g>
	<circle class="st0" cx="267.8" cy="663.8" r="27.2"/>
</g>
<g>
	<circle class="st0" cx="326.7" cy="663.8" r="27.2"/>
</g>
<g>
	<circle class="st0" cx="385.6" cy="663.8" r="27.2"/>
</g>
<g>
	<circle class="st0" cx="444.5" cy="663.8" r="27.2"/>
</g>
<g>
	<circle class="st0" cx="503.5" cy="663.8" r="27.2"/>
</g>
<g>
	<circle class="st0" cx="562.4" cy="663.8" r="27.2"/>
</g>
<g>
	<circle class="st0" cx="623.6" cy="663.8" r="27.2"/>
</g>
<g>
	<circle class="st0" cx="682.6" cy="663.8" r="27.2"/>
</g>
<g>
	<circle class="st0" cx="741.5" cy="663.8" r="27.2"/>
</g>
<g>
	<circle class="st0" cx="800.4" cy="663.8" r="27.2"/>
</g>
<g>
	<circle class="st0" cx="858.2" cy="663.8" r="27.2"/>
</g>
<g>
	<circle class="st0" cx="917.1" cy="663.8" r="27.2"/>
</g>
<g>
	<circle class="st0" cx="976" cy="663.8" r="27.2"/>
</g>
<g>
	
		<ellipse transform="matrix(0.1602 -0.9871 0.9871 0.1602 213.9827 1579.1064)" class="st0" cx="1035" cy="663.8" rx="27.2" ry="27.2"/>
</g>
<g>
	<circle class="st0" cx="1096.2" cy="663.8" r="27.2"/>
</g>
<g>
	<circle class="st0" cx="1155.1" cy="663.8" r="27.2"/>
</g>
<g>
	<circle class="st0" cx="1214.1" cy="663.8" r="27.2"/>
</g>
<g>
	<circle class="st0" cx="1273" cy="663.8" r="27.2"/>
</g>
<g>
	<circle class="st0" cx="1330.8" cy="663.8" r="27.2"/>
</g>
<g>
	<circle class="st1" cx="29.8" cy="600.3" r="27.2"/>
</g>
<g>
	
		<ellipse transform="matrix(3.327794e-02 -0.9994 0.9994 3.327794e-02 -514.2192 668.9741)" class="st1" cx="88.7" cy="600.3" rx="27.2" ry="27.2"/>
</g>
<g>
	
		<ellipse transform="matrix(3.327949e-02 -0.9994 0.9994 3.327949e-02 -455.0911 730.1571)" class="st1" cx="149.9" cy="600.3" rx="27.2" ry="27.1"/>
</g>
<g>
	<circle class="st1" cx="208.9" cy="600.3" r="27.2"/>
</g>
<g>
	<circle class="st1" cx="267.8" cy="600.3" r="27.2"/>
</g>
<g>
	<circle class="st1" cx="326.7" cy="600.3" r="27.2"/>
</g>
<g>
	<circle class="st1" cx="385.6" cy="600.3" r="27.2"/>
</g>
<g>
	<circle class="st1" cx="444.5" cy="600.3" r="27.2"/>
</g>
<g>
	<circle class="st1" cx="503.5" cy="600.3" r="27.2"/>
</g>
<g>
	<circle class="st1" cx="562.4" cy="600.3" r="27.2"/>
</g>
<g>
	<circle class="st1" cx="623.6" cy="600.3" r="27.2"/>
</g>
<g>
	<circle class="st1" cx="682.6" cy="600.3" r="27.2"/>
</g>
<g>
	<circle class="st1" cx="741.5" cy="600.3" r="27.2"/>
</g>
<g>
	<circle class="st1" cx="800.4" cy="600.3" r="27.2"/>
</g>
<g>
	<circle class="st1" cx="858.2" cy="600.3" r="27.2"/>
</g>
<g>
	<circle class="st1" cx="917.1" cy="600.3" r="27.2"/>
</g>
<g>
	<circle class="st1" cx="976" cy="600.3" r="27.2"/>
</g>
<g>
	
		<ellipse transform="matrix(0.1602 -0.9871 0.9871 0.1602 276.6627 1525.7781)" class="st1" cx="1035" cy="600.3" rx="27.2" ry="27.2"/>
</g>
<g>
	<circle class="st1" cx="1096.2" cy="600.3" r="27.2"/>
</g>
<g>
	<circle class="st1" cx="1155.1" cy="600.3" r="27.2"/>
</g>
<g>
	<circle class="st1" cx="1214.1" cy="600.3" r="27.2"/>
</g>
<g>
	<circle class="st1" cx="1273" cy="600.3" r="27.2"/>
</g>
<g>
	<circle class="st1" cx="1330.8" cy="600.3" r="27.2"/>
</g>
<g>
	
		<ellipse transform="matrix(1.281760e-02 -0.9999 0.9999 1.281760e-02 -502.7077 564.2695)" class="st1" cx="34.4" cy="536.7" rx="27.2" ry="27.1"/>
</g>
<g>
	<circle class="st1" cx="93.3" cy="536.8" r="27.2"/>
</g>
<g>
	
		<ellipse transform="matrix(4.531323e-02 -0.999 0.999 4.531323e-02 -390.8344 664.5917)" class="st1" cx="152.3" cy="536.8" rx="27.2" ry="27.1"/>
</g>
<g>
	<circle class="st1" cx="213.5" cy="536.8" r="27.2"/>
</g>
<g>
	<circle class="st1" cx="272.4" cy="536.8" r="27.2"/>
</g>
<g>
	<circle class="st1" cx="331.3" cy="536.8" r="27.2"/>
</g>
<g>
	<circle class="st1" cx="390.2" cy="536.8" r="27.2"/>
</g>
<g>
	<circle class="st1" cx="449.2" cy="536.8" r="27.2"/>
</g>
<g>
	
		<ellipse transform="matrix(0.1602 -0.9871 0.9871 0.1602 -103.1572 952.3533)" class="st1" cx="508.1" cy="536.8" rx="27.2" ry="27.2"/>
</g>
<g>
	<circle class="st1" cx="567" cy="536.8" r="27.2"/>
</g>
<g>
	<circle class="st1" cx="626" cy="536.8" r="27.2"/>
</g>
<g>
	<circle class="st1" cx="687.2" cy="536.8" r="27.2"/>
</g>
<g>
	<circle class="st1" cx="746.1" cy="536.8" r="27.2"/>
</g>
<g>
	<circle class="st1" cx="805" cy="536.8" r="27.2"/>
</g>
<g>
	<circle class="st1" cx="864" cy="536.8" r="27.2"/>
</g>
<g>
	<circle class="st1" cx="921.7" cy="536.8" r="27.2"/>
</g>
<g>
	<circle class="st1" cx="980.7" cy="536.8" r="27.2"/>
</g>
<g>
	
		<ellipse transform="matrix(0.1602 -0.9871 0.9871 0.1602 343.2059 1476.9902)" class="st1" cx="1039.6" cy="536.8" rx="27.2" ry="27.2"/>
</g>
<g>
	<circle class="st1" cx="1098.5" cy="536.8" r="27.2"/>
</g>
<g>
	<circle class="st1" cx="1159.8" cy="536.8" r="27.2"/>
</g>
<g>
	<circle class="st1" cx="1218.7" cy="536.8" r="27.2"/>
</g>
<g>
	<circle class="st1" cx="1277.6" cy="536.8" r="27.2"/>
</g>
<g>
	<circle class="st1" cx="1336.5" cy="536.8" r="27.2"/>
</g>
<g>
	<circle class="st2" cx="30.2" cy="473.2" r="27.1"/>
</g>
<g>
	<circle class="st2" cx="89.2" cy="473.2" r="27.1"/>
</g>
<g>
	<circle class="st2" cx="148.1" cy="473.2" r="27.1"/>
</g>
<g>
	<circle class="st2" cx="209.3" cy="473.2" r="27.1"/>
</g>
<g>
	<circle class="st2" cx="268.2" cy="473.2" r="27.1"/>
</g>
<g>
	<circle class="st2" cx="327.2" cy="473.2" r="27.1"/>
</g>
<g>
	<circle class="st2" cx="386.1" cy="473.2" r="27.1"/>
</g>
<g>
	<circle class="st2" cx="445" cy="473.2" r="27.1"/>
</g>
<g>
	
		<ellipse transform="matrix(0.1602 -0.9871 0.9871 0.1602 -43.9032 894.7846)" class="st2" cx="503.9" cy="473.2" rx="27.1" ry="27.2"/>
</g>
<g>
	<circle class="st2" cx="562.9" cy="473.2" r="27.2"/>
</g>
<g>
	<circle class="st2" cx="621.8" cy="473.2" r="27.2"/>
</g>
<g>
	<circle class="st2" cx="683" cy="473.2" r="27.2"/>
</g>
<g>
	<circle class="st2" cx="742" cy="473.2" r="27.2"/>
</g>
<g>
	<circle class="st2" cx="800.9" cy="473.2" r="27.2"/>
</g>
<g>
	<circle class="st2" cx="859.8" cy="473.2" r="27.2"/>
</g>
<g>
	<circle class="st2" cx="917.6" cy="473.2" r="27.2"/>
</g>
<g>
	<circle class="st2" cx="976.5" cy="473.2" r="27.2"/>
</g>
<g>
	
		<ellipse transform="matrix(0.1602 -0.9871 0.9871 0.1602 402.4574 1419.4321)" class="st2" cx="1035.4" cy="473.2" rx="27.2" ry="27.2"/>
</g>
<g>
	<circle class="st2" cx="1094.4" cy="473.2" r="27.2"/>
</g>
<g>
	<circle class="st2" cx="1155.6" cy="473.2" r="27.2"/>
</g>
<g>
	<circle class="st2" cx="1214.5" cy="473.2" r="27.2"/>
</g>
<g>
	<circle class="st2" cx="1273.4" cy="473.2" r="27.2"/>
</g>
<g>
	<circle class="st2" cx="1332.4" cy="473.2" r="27.2"/>
</g>
<g>
	<circle class="st2" cx="32.5" cy="413.2" r="27.1"/>
</g>
<g>
	<circle class="st2" cx="91.5" cy="413.2" r="27.1"/>
</g>
<g>
	<circle class="st2" cx="150.4" cy="413.2" r="27.1"/>
</g>
<g>
	<circle class="st2" cx="211.6" cy="413.2" r="27.1"/>
</g>
<g>
	<circle class="st2" cx="270.5" cy="413.2" r="27.1"/>
</g>
<g>
	<circle class="st2" cx="329.5" cy="413.2" r="27.1"/>
</g>
<g>
	<circle class="st2" cx="388.4" cy="413.2" r="27.1"/>
</g>
<g>
	<circle class="st2" cx="447.3" cy="413.2" r="27.1"/>
</g>
<g>
	
		<ellipse transform="matrix(0.1602 -0.9871 0.9871 0.1602 17.3834 846.7055)" class="st2" cx="506.3" cy="413.1" rx="27.1" ry="27.2"/>
</g>
<g>
	<circle class="st2" cx="565.2" cy="413.2" r="27.2"/>
</g>
<g>
	<circle class="st2" cx="624.1" cy="413.2" r="27.2"/>
</g>
<g>
	<circle class="st2" cx="685.3" cy="413.2" r="27.2"/>
</g>
<g>
	<circle class="st2" cx="744.3" cy="413.2" r="27.2"/>
</g>
<g>
	<circle class="st2" cx="803.2" cy="413.2" r="27.2"/>
</g>
<g>
	<circle class="st2" cx="862.1" cy="413.2" r="27.2"/>
</g>
<g>
	<circle class="st2" cx="919.9" cy="413.2" r="27.2"/>
</g>
<g>
	<circle class="st2" cx="978.8" cy="413.2" r="27.2"/>
</g>
<g>
	
		<ellipse transform="matrix(0.1602 -0.9871 0.9871 0.1602 463.6983 1371.4121)" class="st2" cx="1037.8" cy="413.2" rx="27.2" ry="27.2"/>
</g>
<g>
	<circle class="st2" cx="1096.7" cy="413.2" r="27.2"/>
</g>
<g>
	<circle class="st2" cx="1157.9" cy="413.2" r="27.2"/>
</g>
<g>
	<circle class="st2" cx="1216.8" cy="413.2" r="27.2"/>
</g>
<g>
	<circle class="st2" cx="1275.8" cy="413.2" r="27.2"/>
</g>
<g>
	<circle class="st2" cx="1334.7" cy="413.2" r="27.2"/>
</g>
<g>
	<circle class="st3" cx="33.7" cy="346.1" r="27.1"/>
</g>
<g>
	<circle class="st3" cx="92.6" cy="346.1" r="27.1"/>
</g>
<g>
	<circle class="st3" cx="151.5" cy="346.1" r="27.1"/>
</g>
<g>
	<circle class="st3" cx="212.8" cy="346.1" r="27.1"/>
</g>
<g>
	<circle class="st3" cx="271.7" cy="346.1" r="27.1"/>
</g>
<g>
	<circle class="st3" cx="330.6" cy="346.1" r="27.1"/>
</g>
<g>
	<circle class="st3" cx="389.6" cy="346.1" r="27.1"/>
</g>
<g>
	<circle class="st3" cx="448.5" cy="346.1" r="27.1"/>
</g>
<g>
	<circle class="st3" cx="507.4" cy="346.1" r="27.1"/>
</g>
<g>
	<circle class="st3" cx="566.3" cy="346.1" r="27.2"/>
</g>
<g>
	<circle class="st3" cx="625.3" cy="346.1" r="27.2"/>
</g>
<g>
	<circle class="st3" cx="686.5" cy="346.1" r="27.2"/>
</g>
<g>
	<circle class="st3" cx="745.4" cy="346.1" r="27.2"/>
</g>
<g>
	<circle class="st3" cx="804.3" cy="346.1" r="27.2"/>
</g>
<g>
	<circle class="st3" cx="863.3" cy="346.1" r="27.2"/>
</g>
<g>
	<circle class="st3" cx="921" cy="346.1" r="27.2"/>
</g>
<g>
	<circle class="st3" cx="980" cy="346.1" r="27.2"/>
</g>
<g>
	
		<ellipse transform="matrix(0.1602 -0.9871 0.9871 0.1602 530.8556 1316.146)" class="st3" cx="1038.9" cy="346.1" rx="27.2" ry="27.2"/>
</g>
<g>
	<circle class="st3" cx="1097.8" cy="346.1" r="27.2"/>
</g>
<g>
	<circle class="st3" cx="1159.1" cy="346.1" r="27.2"/>
</g>
<g>
	<circle class="st3" cx="1218" cy="346.1" r="27.2"/>
</g>
<g>
	<circle class="st3" cx="1276.9" cy="346.1" r="27.2"/>
</g>
<g>
	<circle class="st3" cx="1335.8" cy="346.1" r="27.2"/>
</g>
<g>
	<circle class="st3" cx="31.2" cy="279.1" r="27.1"/>
</g>
<g>
	<circle class="st3" cx="90.1" cy="279.1" r="27.1"/>
</g>
<g>
	<circle class="st3" cx="149" cy="279.1" r="27.1"/>
</g>
<g>
	<circle class="st3" cx="210.2" cy="279.1" r="27.1"/>
</g>
<g>
	<circle class="st3" cx="269.2" cy="279.1" r="27.1"/>
</g>
<g>
	<circle class="st3" cx="328.1" cy="279.1" r="27.1"/>
</g>
<g>
	<circle class="st3" cx="387" cy="279.1" r="27.1"/>
</g>
<g>
	<circle class="st3" cx="446" cy="279.1" r="27.1"/>
</g>
<g>
	
		<ellipse transform="matrix(0.1602 -0.9871 0.9871 0.1602 148.6044 732.7568)" class="st3" cx="504.9" cy="279" rx="27.1" ry="27.2"/>
</g>
<g>
	<circle class="st3" cx="563.8" cy="279.1" r="27.2"/>
</g>
<g>
	<circle class="st3" cx="622.7" cy="279.1" r="27.2"/>
</g>
<g>
	<circle class="st3" cx="684" cy="279.1" r="27.2"/>
</g>
<g>
	<circle class="st3" cx="742.9" cy="279.1" r="27.2"/>
</g>
<g>
	<circle class="st3" cx="801.8" cy="279.1" r="27.2"/>
</g>
<g>
	<circle class="st3" cx="860.8" cy="279.1" r="27.2"/>
</g>
<g>
	<circle class="st3" cx="918.5" cy="279.1" r="27.2"/>
</g>
<g>
	<circle class="st3" cx="977.5" cy="279.1" r="27.2"/>
</g>
<g>
	
		<ellipse transform="matrix(0.1735 -0.9848 0.9848 0.1735 581.7144 1251.3566)" class="st3" cx="1036.4" cy="279.1" rx="27.2" ry="27.2"/>
</g>
<g>
	<circle class="st3" cx="1095.3" cy="279.1" r="27.2"/>
</g>
<g>
	<circle class="st3" cx="1156.5" cy="279.1" r="27.2"/>
</g>
<g>
	<circle class="st3" cx="1215.5" cy="279.1" r="27.2"/>
</g>
<g>
	<circle class="st3" cx="1274.4" cy="279.1" r="27.2"/>
</g>
<g>
	<circle class="st3" cx="1333.3" cy="279.1" r="27.2"/>
</g>
<g>
	
		<ellipse transform="matrix(9.089411e-03 -1 1 9.089411e-03 -704.5117 753.2337)" class="st0" cx="27.8" cy="732.1" rx="27.2" ry="27.1"/>
</g>
<g>
	
		<ellipse transform="matrix(3.327794e-02 -0.9994 0.9994 3.327794e-02 -647.8797 794.3892)" class="st0" cx="86.7" cy="732.1" rx="27.2" ry="27.2"/>
</g>
<g>
	
		<ellipse transform="matrix(3.327949e-02 -0.9994 0.9994 3.327949e-02 -588.6788 855.5297)" class="st0" cx="147.9" cy="732.1" rx="27.2" ry="27.1"/>
</g>
<g>
	<circle class="st0" cx="206.8" cy="732.1" r="27.2"/>
</g>
<g>
	<circle class="st0" cx="265.8" cy="732.1" r="27.2"/>
</g>
<g>
	<circle class="st0" cx="324.7" cy="732.1" r="27.2"/>
</g>
<g>
	<circle class="st0" cx="383.6" cy="732.1" r="27.2"/>
</g>
<g>
	<circle class="st0" cx="442.5" cy="732.1" r="27.2"/>
</g>
<g>
	<circle class="st0" cx="501.5" cy="732.1" r="27.2"/>
</g>
<g>
	<circle class="st0" cx="560.4" cy="732.1" r="27.2"/>
</g>
<g>
	<circle class="st0" cx="621.6" cy="732.1" r="27.2"/>
</g>
<g>
	<circle class="st0" cx="680.5" cy="732.1" r="27.2"/>
</g>
<g>
	<circle class="st0" cx="739.5" cy="732.1" r="27.2"/>
</g>
<g>
	<circle class="st0" cx="798.4" cy="732.1" r="27.2"/>
</g>
<g>
	<circle class="st0" cx="856.2" cy="732.1" r="27.2"/>
</g>
<g>
	<circle class="st0" cx="915.1" cy="732.1" r="27.2"/>
</g>
<g>
	<circle class="st0" cx="974" cy="732.1" r="27.2"/>
</g>
<g>
	
		<ellipse transform="matrix(0.1602 -0.9871 0.9871 0.1602 144.801 1634.3932)" class="st0" cx="1032.9" cy="732.1" rx="27.2" ry="27.2"/>
</g>
<g>
	<circle class="st0" cx="1094.2" cy="732.1" r="27.2"/>
</g>
<g>
	<circle class="st0" cx="1153.1" cy="732.1" r="27.2"/>
</g>
<g>
	<circle class="st0" cx="1212" cy="732.1" r="27.2"/>
</g>
<g>
	<circle class="st0" cx="1271" cy="732.1" r="27.2"/>
</g>
<g>
	<circle class="st0" cx="1328.7" cy="732.1" r="27.2"/>
</g>
</svg>
