
<!-- Generator: Adobe Illustrator 24.1.0, SVG Export Plug-In . SVG Version: 6.00 Build 0)  -->
<svg version="1.1" id="Layer_1" xmlns="http://www.w3.org/2000/svg" xmlns:xlink="http://www.w3.org/1999/xlink" x="0px" y="0px"
	 viewBox="0 0 1366 768" style="enable-background:new 0 0 1366 768;" xml:space="preserve">
<style type="text/css">
	.st0{fill:#FFB26B;}
	.st1{fill:#FFD56B;}
	.st2{fill:#E89B36;}
	.st3{fill:#E58138;}
	.st4{fill:#FFAC5A;}
	.st5{fill:#FF8657;}
	.st6{fill:#FF7B54;}
</style>
<g>
	<circle class="st0" cx="31.8" cy="662.8" r="27.2"/>
</g>
<g>
	<circle class="st0" cx="90.7" cy="662.8" r="27.2"/>
</g>
<g>
	
		<ellipse transform="matrix(3.327795e-02 -0.9994 0.9994 3.327795e-02 -515.6184 792.6276)" class="st0" cx="151.9" cy="662.8" rx="27.2" ry="27.1"/>
</g>
<g>
	<circle class="st0" cx="210.9" cy="662.8" r="27.2"/>
</g>
<g>
	<circle class="st0" cx="269.8" cy="662.8" r="27.2"/>
</g>
<g>
	<circle class="st0" cx="328.7" cy="662.8" r="27.2"/>
</g>
<g>
	<circle class="st0" cx="387.6" cy="662.8" r="27.2"/>
</g>
<g>
	<circle class="st0" cx="446.5" cy="662.8" r="27.2"/>
</g>
<g>
	<circle class="st0" cx="505.5" cy="662.8" r="27.2"/>
</g>
<g>
	<circle class="st0" cx="564.4" cy="662.8" r="27.2"/>
</g>
<g>
	<circle class="st0" cx="625.6" cy="662.8" r="27.2"/>
</g>
<g>
	<circle class="st0" cx="684.6" cy="662.8" r="27.2"/>
</g>
<g>
	<circle class="st0" cx="743.5" cy="662.8" r="27.2"/>
</g>
<g>
	<circle class="st0" cx="802.4" cy="662.8" r="27.2"/>
</g>
<g>
	<circle class="st0" cx="860.2" cy="662.8" r="27.2"/>
</g>
<g>
	<circle class="st0" cx="919.1" cy="662.8" r="27.2"/>
</g>
<g>
	<circle class="st0" cx="978" cy="662.8" r="27.2"/>
</g>
<g>
	<circle class="st0" cx="1037" cy="662.8" r="27.2"/>
</g>
<g>
	<circle class="st0" cx="1098.2" cy="662.8" r="27.2"/>
</g>
<g>
	<circle class="st1" cx="1157.1" cy="662.8" r="27.2"/>
</g>
<g>
	<circle class="st1" cx="1216.1" cy="662.8" r="27.2"/>
</g>
<g>
	<circle class="st1" cx="1275" cy="662.8" r="27.2"/>
</g>
<g>
	<circle class="st1" cx="1332.8" cy="662.8" r="27.2"/>
</g>
<g>
	<circle class="st2" cx="31.8" cy="599.3" r="27.2"/>
</g>
<g>
	<circle class="st2" cx="90.7" cy="599.3" r="27.2"/>
</g>
<g>
	
		<ellipse transform="matrix(3.327795e-02 -0.9994 0.9994 3.327795e-02 -452.1036 731.1924)" class="st2" cx="151.9" cy="599.3" rx="27.2" ry="27.1"/>
</g>
<g>
	<circle class="st2" cx="210.9" cy="599.3" r="27.2"/>
</g>
<g>
	<circle class="st2" cx="269.8" cy="599.3" r="27.2"/>
</g>
<g>
	<circle class="st2" cx="328.7" cy="599.3" r="27.2"/>
</g>
<g>
	<circle class="st2" cx="387.6" cy="599.3" r="27.2"/>
</g>
<g>
	<circle class="st2" cx="446.5" cy="599.3" r="27.2"/>
</g>
<g>
	<circle class="st2" cx="505.5" cy="599.3" r="27.2"/>
</g>
<g>
	<circle class="st2" cx="564.4" cy="599.3" r="27.2"/>
</g>
<g>
	<circle class="st2" cx="625.6" cy="599.3" r="27.2"/>
</g>
<g>
	<circle class="st2" cx="684.6" cy="599.3" r="27.2"/>
</g>
<g>
	<circle class="st2" cx="743.5" cy="599.3" r="27.2"/>
</g>
<g>
	<circle class="st2" cx="802.4" cy="599.3" r="27.2"/>
</g>
<g>
	<circle class="st2" cx="860.2" cy="599.3" r="27.2"/>
</g>
<g>
	<circle class="st2" cx="919.1" cy="599.3" r="27.2"/>
</g>
<g>
	<circle class="st2" cx="978" cy="599.3" r="27.2"/>
</g>
<g>
	<circle class="st2" cx="1037" cy="599.3" r="27.2"/>
</g>
<g>
	<circle class="st2" cx="1098.2" cy="599.3" r="27.2"/>
</g>
<g>
	<circle class="st2" cx="1157.1" cy="599.3" r="27.2"/>
</g>
<g>
	<circle class="st2" cx="1216.1" cy="599.3" r="27.2"/>
</g>
<g>
	<circle class="st2" cx="1275" cy="599.3" r="27.2"/>
</g>
<g>
	<circle class="st2" cx="1332.8" cy="599.3" r="27.2"/>
</g>
<g>
	
		<ellipse transform="matrix(1.281737e-02 -0.9999 0.9999 1.281737e-02 -499.7923 565.2601)" class="st3" cx="36.4" cy="535.8" rx="27.2" ry="27.1"/>
</g>
<g>
	<circle class="st3" cx="95.3" cy="535.8" r="27.2"/>
</g>
<g>
	
		<ellipse transform="matrix(4.531446e-02 -0.999 0.999 4.531446e-02 -387.9585 665.5444)" class="st3" cx="154.2" cy="535.8" rx="27.2" ry="27.1"/>
</g>
<g>
	<circle class="st3" cx="215.5" cy="535.8" r="27.2"/>
</g>
<g>
	<circle class="st3" cx="274.4" cy="535.8" r="27.2"/>
</g>
<g>
	<circle class="st3" cx="333.3" cy="535.8" r="27.2"/>
</g>
<g>
	<circle class="st3" cx="392.2" cy="535.8" r="27.2"/>
</g>
<g>
	<circle class="st3" cx="451.2" cy="535.8" r="27.2"/>
</g>
<g>
	<circle class="st3" cx="510.1" cy="535.8" r="27.2"/>
</g>
<g>
	<circle class="st3" cx="569" cy="535.8" r="27.2"/>
</g>
<g>
	<circle class="st3" cx="628" cy="535.8" r="27.2"/>
</g>
<g>
	<circle class="st3" cx="689.2" cy="535.8" r="27.2"/>
</g>
<g>
	<circle class="st3" cx="748.1" cy="535.8" r="27.2"/>
</g>
<g>
	<circle class="st3" cx="807" cy="535.8" r="27.2"/>
</g>
<g>
	<circle class="st3" cx="866" cy="535.8" r="27.2"/>
</g>
<g>
	<circle class="st3" cx="923.7" cy="535.8" r="27.2"/>
</g>
<g>
	<circle class="st3" cx="982.7" cy="535.8" r="27.2"/>
</g>
<g>
	<circle class="st3" cx="1041.6" cy="535.8" r="27.2"/>
</g>
<g>
	<circle class="st3" cx="1100.5" cy="535.8" r="27.2"/>
</g>
<g>
	<circle class="st3" cx="1161.8" cy="535.8" r="27.2"/>
</g>
<g>
	<circle class="st3" cx="1220.7" cy="535.8" r="27.2"/>
</g>
<g>
	<circle class="st3" cx="1279.6" cy="535.8" r="27.2"/>
</g>
<g>
	<circle class="st3" cx="1338.5" cy="535.8" r="27.2"/>
</g>
<g>
	<circle class="st4" cx="32.2" cy="472.2" r="27.1"/>
</g>
<g>
	<circle class="st4" cx="91.2" cy="472.2" r="27.1"/>
</g>
<g>
	<circle class="st4" cx="150.1" cy="472.2" r="27.1"/>
</g>
<g>
	<circle class="st4" cx="211.3" cy="472.2" r="27.1"/>
</g>
<g>
	<circle class="st4" cx="270.2" cy="472.2" r="27.1"/>
</g>
<g>
	<circle class="st4" cx="329.2" cy="472.2" r="27.1"/>
</g>
<g>
	<circle class="st4" cx="388.1" cy="472.2" r="27.1"/>
</g>
<g>
	<circle class="st4" cx="447" cy="472.2" r="27.1"/>
</g>
<g>
	
		<ellipse transform="matrix(0.1602 -0.9871 0.9871 0.1602 -41.2462 896.0209)" class="st4" cx="506" cy="472.2" rx="27.1" ry="27.2"/>
</g>
<g>
	<circle class="st4" cx="564.9" cy="472.2" r="27.2"/>
</g>
<g>
	<circle class="st4" cx="623.8" cy="472.2" r="27.2"/>
</g>
<g>
	<circle class="st4" cx="685" cy="472.2" r="27.2"/>
</g>
<g>
	<circle class="st4" cx="744" cy="472.2" r="27.2"/>
</g>
<g>
	<circle class="st4" cx="802.9" cy="472.2" r="27.2"/>
</g>
<g>
	<circle class="st4" cx="861.8" cy="472.2" r="27.2"/>
</g>
<g>
	<circle class="st4" cx="919.6" cy="472.2" r="27.2"/>
</g>
<g>
	<circle class="st4" cx="978.5" cy="472.2" r="27.2"/>
</g>
<g>
	<circle class="st4" cx="1037.4" cy="472.2" r="27.2"/>
</g>
<g>
	<circle class="st4" cx="1096.4" cy="472.2" r="27.2"/>
</g>
<g>
	<circle class="st4" cx="1157.6" cy="472.2" r="27.2"/>
</g>
<g>
	<circle class="st4" cx="1216.5" cy="472.2" r="27.2"/>
</g>
<g>
	<circle class="st4" cx="1275.4" cy="472.2" r="27.2"/>
</g>
<g>
	<circle class="st4" cx="1334.4" cy="472.2" r="27.2"/>
</g>
<g>
	<circle class="st5" cx="34.5" cy="412.2" r="27.1"/>
</g>
<g>
	<circle class="st5" cx="93.5" cy="412.2" r="27.1"/>
</g>
<g>
	<circle class="st5" cx="152.4" cy="412.2" r="27.1"/>
</g>
<g>
	<circle class="st5" cx="213.6" cy="412.2" r="27.1"/>
</g>
<g>
	<circle class="st5" cx="272.5" cy="412.2" r="27.1"/>
</g>
<g>
	<circle class="st5" cx="331.5" cy="412.2" r="27.1"/>
</g>
<g>
	<circle class="st5" cx="390.4" cy="412.2" r="27.1"/>
</g>
<g>
	<circle class="st5" cx="449.3" cy="412.2" r="27.1"/>
</g>
<g>
	
		<ellipse transform="matrix(0.1602 -0.9871 0.9871 0.1602 19.998 847.8448)" class="st5" cx="508.3" cy="412.2" rx="27.1" ry="27.2"/>
</g>
<g>
	<circle class="st5" cx="567.2" cy="412.2" r="27.2"/>
</g>
<g>
	<circle class="st5" cx="626.1" cy="412.2" r="27.2"/>
</g>
<g>
	<circle class="st5" cx="687.3" cy="412.2" r="27.2"/>
</g>
<g>
	<circle class="st5" cx="746.3" cy="412.2" r="27.2"/>
</g>
<g>
	<circle class="st5" cx="805.2" cy="412.2" r="27.2"/>
</g>
<g>
	<circle class="st5" cx="864.1" cy="412.2" r="27.2"/>
</g>
<g>
	<circle class="st5" cx="921.9" cy="412.2" r="27.2"/>
</g>
<g>
	<circle class="st5" cx="980.8" cy="412.2" r="27.2"/>
</g>
<g>
	<circle class="st5" cx="1039.8" cy="412.2" r="27.2"/>
</g>
<g>
	<circle class="st5" cx="1098.7" cy="412.2" r="27.2"/>
</g>
<g>
	<circle class="st5" cx="1159.9" cy="412.2" r="27.2"/>
</g>
<g>
	<circle class="st5" cx="1218.8" cy="412.2" r="27.2"/>
</g>
<g>
	<circle class="st5" cx="1277.8" cy="412.2" r="27.2"/>
</g>
<g>
	<circle class="st5" cx="1336.7" cy="412.2" r="27.2"/>
</g>
<g>
	<circle class="st6" cx="35.7" cy="345.1" r="27.1"/>
</g>
<g>
	<circle class="st6" cx="94.6" cy="345.1" r="27.1"/>
</g>
<g>
	<circle class="st6" cx="153.5" cy="345.1" r="27.1"/>
</g>
<g>
	<circle class="st6" cx="214.8" cy="345.1" r="27.1"/>
</g>
<g>
	<circle class="st6" cx="273.7" cy="345.1" r="27.1"/>
</g>
<g>
	<circle class="st6" cx="332.6" cy="345.1" r="27.1"/>
</g>
<g>
	<circle class="st6" cx="391.6" cy="345.1" r="27.1"/>
</g>
<g>
	<circle class="st6" cx="450.5" cy="345.1" r="27.1"/>
</g>
<g>
	<circle class="st6" cx="509.4" cy="345.1" r="27.1"/>
</g>
<g>
	<circle class="st6" cx="568.3" cy="345.1" r="27.2"/>
</g>
<g>
	<circle class="st6" cx="627.3" cy="345.1" r="27.2"/>
</g>
<g>
	<circle class="st6" cx="688.5" cy="345.1" r="27.2"/>
</g>
<g>
	<circle class="st6" cx="747.4" cy="345.1" r="27.2"/>
</g>
<g>
	<circle class="st6" cx="806.3" cy="345.1" r="27.2"/>
</g>
<g>
	<circle class="st6" cx="865.3" cy="345.1" r="27.2"/>
</g>
<g>
	<circle class="st6" cx="923" cy="345.1" r="27.2"/>
</g>
<g>
	<circle class="st6" cx="982" cy="345.1" r="27.2"/>
</g>
<g>
	<circle class="st6" cx="1040.9" cy="345.1" r="27.2"/>
</g>
<g>
	<circle class="st6" cx="1099.8" cy="345.1" r="27.2"/>
</g>
<g>
	<circle class="st6" cx="1161.1" cy="345.1" r="27.2"/>
</g>
<g>
	<circle class="st6" cx="1220" cy="345.1" r="27.2"/>
</g>
<g>
	<circle class="st6" cx="1278.9" cy="345.1" r="27.2"/>
</g>
<g>
	<circle class="st6" cx="1337.8" cy="345.1" r="27.2"/>
</g>
<g>
	<circle class="st6" cx="33.2" cy="278.1" r="27.1"/>
</g>
<g>
	<circle class="st6" cx="92.1" cy="278.1" r="27.1"/>
</g>
<g>
	<circle class="st6" cx="151" cy="278.1" r="27.1"/>
</g>
<g>
	<circle class="st6" cx="212.2" cy="278.1" r="27.1"/>
</g>
<g>
	<circle class="st6" cx="271.2" cy="278.1" r="27.1"/>
</g>
<g>
	<circle class="st6" cx="330.1" cy="278.1" r="27.1"/>
</g>
<g>
	<circle class="st6" cx="389" cy="278.1" r="27.1"/>
</g>
<g>
	<circle class="st6" cx="448" cy="278.1" r="27.1"/>
</g>
<g>
	
		<ellipse transform="matrix(0.1602 -0.9871 0.9871 0.1602 151.2173 733.8546)" class="st6" cx="506.9" cy="278.1" rx="27.1" ry="27.2"/>
</g>
<g>
	<circle class="st6" cx="565.8" cy="278.1" r="27.2"/>
</g>
<g>
	<circle class="st6" cx="624.7" cy="278.1" r="27.2"/>
</g>
<g>
	<circle class="st6" cx="686" cy="278.1" r="27.2"/>
</g>
<g>
	<circle class="st6" cx="744.9" cy="278.1" r="27.2"/>
</g>
<g>
	<circle class="st6" cx="803.8" cy="278.1" r="27.2"/>
</g>
<g>
	<circle class="st6" cx="862.8" cy="278.1" r="27.2"/>
</g>
<g>
	<circle class="st6" cx="920.5" cy="278.1" r="27.2"/>
</g>
<g>
	<circle class="st6" cx="979.5" cy="278.1" r="27.2"/>
</g>
<g>
	<circle class="st6" cx="1038.4" cy="278.1" r="27.2"/>
</g>
<g>
	<circle class="st6" cx="1097.3" cy="278.1" r="27.2"/>
</g>
<g>
	<circle class="st6" cx="1158.5" cy="278.1" r="27.2"/>
</g>
<g>
	<circle class="st6" cx="1217.5" cy="278.1" r="27.2"/>
</g>
<g>
	<circle class="st6" cx="1276.4" cy="278.1" r="27.2"/>
</g>
<g>
	<circle class="st6" cx="1335.3" cy="278.1" r="27.2"/>
</g>
<g>
	
		<ellipse transform="matrix(9.089787e-03 -1 1 9.089787e-03 -701.57 754.1436)" class="st0" cx="29.7" cy="731.1" rx="27.2" ry="27.1"/>
</g>
<g>
	<circle class="st0" cx="88.7" cy="731.1" r="27.2"/>
</g>
<g>
	
		<ellipse transform="matrix(3.327795e-02 -0.9994 0.9994 3.327795e-02 -585.7435 856.5488)" class="st0" cx="149.9" cy="731.1" rx="27.2" ry="27.1"/>
</g>
<g>
	<circle class="st0" cx="208.8" cy="731.1" r="27.2"/>
</g>
<g>
	<circle class="st0" cx="267.8" cy="731.1" r="27.2"/>
</g>
<g>
	<circle class="st0" cx="326.7" cy="731.1" r="27.2"/>
</g>
<g>
	<circle class="st0" cx="385.6" cy="731.1" r="27.2"/>
</g>
<g>
	<circle class="st0" cx="444.5" cy="731.1" r="27.2"/>
</g>
<g>
	<circle class="st0" cx="503.5" cy="731.1" r="27.2"/>
</g>
<g>
	<circle class="st0" cx="562.4" cy="731.1" r="27.2"/>
</g>
<g>
	<circle class="st0" cx="623.6" cy="731.1" r="27.2"/>
</g>
<g>
	<circle class="st0" cx="682.5" cy="731.1" r="27.2"/>
</g>
<g>
	<circle class="st0" cx="741.5" cy="731.1" r="27.2"/>
</g>
<g>
	<circle class="st0" cx="800.4" cy="731.1" r="27.2"/>
</g>
<g>
	<circle class="st0" cx="858.2" cy="731.1" r="27.2"/>
</g>
<g>
	<circle class="st0" cx="917.1" cy="731.1" r="27.2"/>
</g>
<g>
	<circle class="st0" cx="976" cy="731.1" r="27.2"/>
</g>
<g>
	<circle class="st0" cx="1034.9" cy="731.1" r="27.2"/>
</g>
<g>
	<circle class="st0" cx="1096.2" cy="731.1" r="27.2"/>
</g>
<g>
	<circle class="st1" cx="1155.1" cy="731.1" r="27.2"/>
</g>
<g>
	<circle class="st1" cx="1214" cy="731.1" r="27.2"/>
</g>
<g>
	<circle class="st1" cx="1273" cy="731.1" r="27.2"/>
</g>
<g>
	<circle class="st1" cx="1330.7" cy="731.1" r="27.2"/>
</g>
</svg>
